<svg width="149" height="30" viewBox="0 0 149 30" fill="none" xmlns="http://www.w3.org/2000/svg">
<path fill-rule="evenodd" clip-rule="evenodd" d="M43.4286 14.4762C43.4286 19.736 39.6763 24 35.0476 24H8.38095H7.99997V23.9915C3.54812 23.7923 0 20.12 0 15.619C0 10.9904 3.75228 7.2381 8.38095 7.2381C9.84997 7.2381 11.2307 7.61605 12.4312 8.28001C13.0709 3.59859 16.9153 0 21.5622 0C25.6398 0 29.0994 2.77076 30.3182 6.61258C31.6643 5.56512 33.293 4.95238 35.0476 4.95238C39.6763 4.95238 43.4286 9.21634 43.4286 14.4762ZM8.26815 16.4233C8.71767 16.4233 9.08208 16.034 9.08208 15.5538C9.08208 15.0736 8.71767 14.6843 8.26815 14.6843C7.81863 14.6843 7.45422 15.0736 7.45422 15.5538C7.45422 16.034 7.81863 16.4233 8.26815 16.4233ZM35.6702 15.5538C35.6702 16.034 35.3058 16.4233 34.8563 16.4233C34.4067 16.4233 34.0423 16.034 34.0423 15.5538C34.0423 15.0736 34.4067 14.6843 34.8563 14.6843C35.3058 14.6843 35.6702 15.0736 35.6702 15.5538ZM12.6287 15.9831C12.3852 15.852 12.0823 15.9428 11.9523 16.1859C11.8222 16.429 11.9143 16.7323 12.1578 16.8634C15.0662 18.4286 22.9109 20.7064 31.3811 17.5286C31.6392 17.4318 31.7692 17.1436 31.6712 16.8849C31.5733 16.6263 31.2847 16.4952 31.0265 16.592C22.8787 19.6488 15.3366 17.4404 12.6287 15.9831Z" fill="#1FC5DD"/>
<path d="M58.4062 19.5352C58.4062 19.2305 58.3594 18.957 58.2656 18.7148C58.1797 18.4648 58.0156 18.2383 57.7734 18.0352C57.5312 17.8242 57.1914 17.6172 56.7539 17.4141C56.3164 17.2109 55.75 17 55.0547 16.7812C54.2812 16.5312 53.5469 16.25 52.8516 15.9375C52.1641 15.625 51.5547 15.2617 51.0234 14.8477C50.5 14.4258 50.0859 13.9375 49.7812 13.3828C49.4844 12.8281 49.3359 12.1836 49.3359 11.4492C49.3359 10.7383 49.4922 10.0938 49.8047 9.51562C50.1172 8.92969 50.5547 8.42969 51.1172 8.01562C51.6797 7.59375 52.3438 7.26953 53.1094 7.04297C53.8828 6.81641 54.7305 6.70312 55.6523 6.70312C56.9102 6.70312 58.0078 6.92969 58.9453 7.38281C59.8828 7.83594 60.6094 8.45703 61.125 9.24609C61.6484 10.0352 61.9102 10.9375 61.9102 11.9531H58.418C58.418 11.4531 58.3125 11.0156 58.1016 10.6406C57.8984 10.2578 57.5859 9.95703 57.1641 9.73828C56.75 9.51953 56.2266 9.41016 55.5938 9.41016C54.9844 9.41016 54.4766 9.50391 54.0703 9.69141C53.6641 9.87109 53.3594 10.1172 53.1562 10.4297C52.9531 10.7344 52.8516 11.0781 52.8516 11.4609C52.8516 11.75 52.9219 12.0117 53.0625 12.2461C53.2109 12.4805 53.4297 12.6992 53.7188 12.9023C54.0078 13.1055 54.3633 13.2969 54.7852 13.4766C55.207 13.6562 55.6953 13.832 56.25 14.0039C57.1797 14.2852 57.9961 14.6016 58.6992 14.9531C59.4102 15.3047 60.0039 15.6992 60.4805 16.1367C60.957 16.5742 61.3164 17.0703 61.5586 17.625C61.8008 18.1797 61.9219 18.8086 61.9219 19.5117C61.9219 20.2539 61.7773 20.918 61.4883 21.5039C61.1992 22.0898 60.7812 22.5859 60.2344 22.9922C59.6875 23.3984 59.0352 23.707 58.2773 23.918C57.5195 24.1289 56.6719 24.2344 55.7344 24.2344C54.8906 24.2344 54.0586 24.125 53.2383 23.9062C52.418 23.6797 51.6719 23.3398 51 22.8867C50.3359 22.4336 49.8047 21.8555 49.4062 21.1523C49.0078 20.4492 48.8086 19.6172 48.8086 18.6562H52.3359C52.3359 19.1875 52.418 19.6367 52.582 20.0039C52.7461 20.3711 52.9766 20.668 53.2734 20.8945C53.5781 21.1211 53.9375 21.2852 54.3516 21.3867C54.7734 21.4883 55.2344 21.5391 55.7344 21.5391C56.3438 21.5391 56.8438 21.4531 57.2344 21.2812C57.6328 21.1094 57.9258 20.8711 58.1133 20.5664C58.3086 20.2617 58.4062 19.918 58.4062 19.5352ZM66.9966 5.98828V24H63.6216V5.98828H66.9966ZM74.9888 11.3203L69.4809 17.6016L66.5278 20.5898L65.2973 18.1523L67.6411 15.1758L70.9341 11.3203H74.9888ZM71.4848 24L67.7348 18.1406L70.0669 16.1016L75.3755 24H71.4848ZM79.7236 22.5703L83.0869 11.3203H86.708L81.6103 25.9102C81.5009 26.2305 81.3525 26.5742 81.165 26.9414C80.9853 27.3086 80.7392 27.6562 80.4267 27.9844C80.122 28.3203 79.7353 28.5938 79.2666 28.8047C78.8056 29.0156 78.2392 29.1211 77.5673 29.1211C77.247 29.1211 76.9853 29.1016 76.7822 29.0625C76.5791 29.0234 76.3369 28.9688 76.0556 28.8984V26.4258C76.1416 26.4258 76.2314 26.4258 76.3252 26.4258C76.4189 26.4336 76.5088 26.4375 76.5947 26.4375C77.04 26.4375 77.4033 26.3867 77.6845 26.2852C77.9658 26.1836 78.1923 26.0273 78.3642 25.8164C78.5361 25.6133 78.6728 25.3477 78.7744 25.0195L79.7236 22.5703ZM78.3173 11.3203L81.0713 20.5078L81.5517 24.082L79.2548 24.3281L74.6963 11.3203H78.3173ZM94.4663 16.5117H90.0834L90.06 14.0977H93.7397C94.3881 14.0977 94.9194 14.0156 95.3334 13.8516C95.7475 13.6797 96.0561 13.4336 96.2592 13.1133C96.4702 12.7852 96.5756 12.3867 96.5756 11.918C96.5756 11.3867 96.4741 10.957 96.2709 10.6289C96.0756 10.3008 95.767 10.0625 95.3452 9.91406C94.9311 9.76562 94.3959 9.69141 93.7397 9.69141H91.3022V24H87.7866V6.9375H93.7397C94.7319 6.9375 95.6186 7.03125 96.3998 7.21875C97.1889 7.40625 97.8569 7.69141 98.4038 8.07422C98.9506 8.45703 99.3686 8.94141 99.6577 9.52734C99.9467 10.1055 100.091 10.793 100.091 11.5898C100.091 12.293 99.9311 12.9414 99.6108 13.5352C99.2983 14.1289 98.8022 14.6133 98.1225 14.9883C97.4506 15.3633 96.5717 15.5703 95.4858 15.6094L94.4663 16.5117ZM94.3139 24H89.1225L90.4936 21.2578H94.3139C94.9311 21.2578 95.435 21.1602 95.8256 20.9648C96.2163 20.7617 96.5053 20.4883 96.6928 20.1445C96.8803 19.8008 96.9741 19.4062 96.9741 18.9609C96.9741 18.4609 96.8881 18.0273 96.7163 17.6602C96.5522 17.293 96.2866 17.0117 95.9194 16.8164C95.5522 16.6133 95.0678 16.5117 94.4663 16.5117H91.0795L91.103 14.0977H95.3217L96.1303 15.0469C97.1694 15.0312 98.0053 15.2148 98.6381 15.5977C99.2788 15.9727 99.7436 16.4609 100.033 17.0625C100.33 17.6641 100.478 18.3086 100.478 18.9961C100.478 20.0898 100.24 21.0117 99.7631 21.7617C99.2866 22.5039 98.5873 23.0625 97.6655 23.4375C96.7514 23.8125 95.6342 24 94.3139 24ZM101.885 17.7891V17.543C101.885 16.6133 102.018 15.7578 102.283 14.9766C102.549 14.1875 102.935 13.5039 103.443 12.9258C103.951 12.3477 104.576 11.8984 105.318 11.5781C106.06 11.25 106.912 11.0859 107.873 11.0859C108.834 11.0859 109.689 11.25 110.439 11.5781C111.189 11.8984 111.818 12.3477 112.326 12.9258C112.842 13.5039 113.232 14.1875 113.498 14.9766C113.764 15.7578 113.896 16.6133 113.896 17.543V17.7891C113.896 18.7109 113.764 19.5664 113.498 20.3555C113.232 21.1367 112.842 21.8203 112.326 22.4062C111.818 22.9844 111.193 23.4336 110.451 23.7539C109.709 24.0742 108.857 24.2344 107.896 24.2344C106.935 24.2344 106.08 24.0742 105.33 23.7539C104.588 23.4336 103.959 22.9844 103.443 22.4062C102.935 21.8203 102.549 21.1367 102.283 20.3555C102.018 19.5664 101.885 18.7109 101.885 17.7891ZM105.26 17.543V17.7891C105.26 18.3203 105.307 18.8164 105.4 19.2773C105.494 19.7383 105.643 20.1445 105.846 20.4961C106.057 20.8398 106.33 21.1094 106.666 21.3047C107.002 21.5 107.412 21.5977 107.896 21.5977C108.365 21.5977 108.768 21.5 109.103 21.3047C109.439 21.1094 109.709 20.8398 109.912 20.4961C110.115 20.1445 110.264 19.7383 110.357 19.2773C110.459 18.8164 110.51 18.3203 110.51 17.7891V17.543C110.51 17.0273 110.459 16.543 110.357 16.0898C110.264 15.6289 110.111 15.2227 109.9 14.8711C109.697 14.5117 109.428 14.2305 109.092 14.0273C108.756 13.8242 108.35 13.7227 107.873 13.7227C107.396 13.7227 106.99 13.8242 106.654 14.0273C106.326 14.2305 106.057 14.5117 105.846 14.8711C105.643 15.2227 105.494 15.6289 105.4 16.0898C105.307 16.543 105.26 17.0273 105.26 17.543ZM122.334 21.1406V15.4922C122.334 15.0859 122.268 14.7383 122.135 14.4492C122.002 14.1523 121.795 13.9219 121.514 13.7578C121.241 13.5938 120.885 13.5117 120.448 13.5117C120.073 13.5117 119.748 13.5781 119.475 13.7109C119.202 13.8359 118.991 14.0195 118.842 14.2617C118.694 14.4961 118.62 14.7734 118.62 15.0938H115.245C115.245 14.5547 115.37 14.043 115.62 13.5586C115.87 13.0742 116.233 12.6484 116.709 12.2812C117.186 11.9062 117.752 11.6133 118.409 11.4023C119.073 11.1914 119.815 11.0859 120.635 11.0859C121.62 11.0859 122.495 11.25 123.26 11.5781C124.026 11.9062 124.627 12.3984 125.065 13.0547C125.51 13.7109 125.733 14.5312 125.733 15.5156V20.9414C125.733 21.6367 125.776 22.207 125.862 22.6523C125.948 23.0898 126.073 23.4727 126.237 23.8008V24H122.827C122.662 23.6562 122.537 23.2266 122.452 22.7109C122.373 22.1875 122.334 21.6641 122.334 21.1406ZM122.78 16.2773L122.803 18.1875H120.916C120.471 18.1875 120.084 18.2383 119.756 18.3398C119.428 18.4414 119.159 18.5859 118.948 18.7734C118.737 18.9531 118.58 19.1641 118.479 19.4062C118.385 19.6484 118.338 19.9141 118.338 20.2031C118.338 20.4922 118.405 20.7539 118.537 20.9883C118.67 21.2148 118.862 21.3945 119.112 21.5273C119.362 21.6523 119.655 21.7148 119.991 21.7148C120.498 21.7148 120.94 21.6133 121.315 21.4102C121.69 21.207 121.979 20.957 122.182 20.6602C122.393 20.3633 122.502 20.082 122.51 19.8164L123.401 21.2461C123.276 21.5664 123.104 21.8984 122.885 22.2422C122.674 22.5859 122.405 22.9102 122.077 23.2148C121.748 23.5117 121.354 23.7578 120.893 23.9531C120.432 24.1406 119.885 24.2344 119.252 24.2344C118.448 24.2344 117.717 24.0742 117.061 23.7539C116.412 23.4258 115.897 22.9766 115.514 22.4062C115.139 21.8281 114.952 21.1719 114.952 20.4375C114.952 19.7734 115.077 19.1836 115.327 18.668C115.577 18.1523 115.944 17.7188 116.428 17.3672C116.92 17.0078 117.534 16.7383 118.268 16.5586C119.002 16.3711 119.854 16.2773 120.823 16.2773H122.78ZM131.229 14.0859V24H127.854V11.3203H131.03L131.229 14.0859ZM135.05 11.2383L134.991 14.3672C134.827 14.3438 134.628 14.3242 134.393 14.3086C134.167 14.2852 133.96 14.2734 133.772 14.2734C133.296 14.2734 132.882 14.3359 132.53 14.4609C132.186 14.5781 131.897 14.7539 131.663 14.9883C131.436 15.2227 131.265 15.5078 131.147 15.8438C131.038 16.1797 130.975 16.5625 130.96 16.9922L130.28 16.7812C130.28 15.9609 130.362 15.207 130.526 14.5195C130.69 13.8242 130.929 13.2188 131.241 12.7031C131.561 12.1875 131.952 11.7891 132.413 11.5078C132.874 11.2266 133.401 11.0859 133.995 11.0859C134.183 11.0859 134.374 11.1016 134.569 11.1328C134.765 11.1562 134.925 11.1914 135.05 11.2383ZM143.417 21.2344V6H146.816V24H143.757L143.417 21.2344ZM135.402 17.8125V17.5664C135.402 16.5977 135.511 15.7188 135.73 14.9297C135.949 14.1328 136.269 13.4492 136.691 12.8789C137.113 12.3086 137.632 11.8672 138.249 11.5547C138.867 11.2422 139.57 11.0859 140.359 11.0859C141.101 11.0859 141.749 11.2422 142.304 11.5547C142.867 11.8672 143.343 12.3125 143.734 12.8906C144.132 13.4609 144.452 14.1367 144.695 14.918C144.937 15.6914 145.113 16.5391 145.222 17.4609V18C145.113 18.8828 144.937 19.7031 144.695 20.4609C144.452 21.2188 144.132 21.8828 143.734 22.4531C143.343 23.0156 142.867 23.4531 142.304 23.7656C141.742 24.0781 141.085 24.2344 140.335 24.2344C139.546 24.2344 138.843 24.0742 138.226 23.7539C137.617 23.4336 137.101 22.9844 136.679 22.4062C136.265 21.8281 135.949 21.1484 135.73 20.3672C135.511 19.5859 135.402 18.7344 135.402 17.8125ZM138.777 17.5664V17.8125C138.777 18.3359 138.816 18.8242 138.894 19.2773C138.98 19.7305 139.117 20.1328 139.304 20.4844C139.499 20.8281 139.749 21.0977 140.054 21.293C140.367 21.4805 140.745 21.5742 141.191 21.5742C141.769 21.5742 142.245 21.4453 142.62 21.1875C142.995 20.9219 143.281 20.5586 143.476 20.0977C143.679 19.6367 143.796 19.1055 143.827 18.5039V16.9688C143.804 16.4766 143.734 16.0352 143.617 15.6445C143.507 15.2461 143.343 14.9062 143.124 14.625C142.913 14.3438 142.648 14.125 142.327 13.9688C142.015 13.8125 141.644 13.7344 141.214 13.7344C140.777 13.7344 140.402 13.8359 140.089 14.0391C139.777 14.2344 139.523 14.5039 139.327 14.8477C139.14 15.1914 138.999 15.5977 138.906 16.0664C138.82 16.5273 138.777 17.0273 138.777 17.5664Z" fill="#1FC5DD"/>
</svg>
